<?xml version="1.0" encoding="utf-8"?>
<!-- Generator: Adobe Illustrator 23.1.1, SVG Export Plug-In . SVG Version: 6.00 Build 0)  -->
<svg version="1.1" id="Capa_1" xmlns="http://www.w3.org/2000/svg" xmlns:xlink="http://www.w3.org/1999/xlink" x="0px" y="0px"
	 viewBox="0 0 670.6 670.6" style="enable-background:new 0 0 670.6 670.6;" xml:space="preserve">
<style type="text/css">
	.st0{fill:#ED1C24;}
</style>
<g>
	<path class="st0" d="M349.8,147.9c-38.6,0-70,31.3-70,69.9c0,38.6,31.4,70,70,70c38.6,0,70-31.3,70-70
		C419.7,179.3,388.4,147.9,349.8,147.9z"/>
	<path class="st0" d="M251.7,183.6h-9.1l-0.8-40.1h-6.3l-1,40.1H227l-3.2-39.3h-6.5V185l0.1,0c0.4,11.4,5.3,13.7,12.4,16.6v92.6
		h18.4v-92.3c4.1-2,12-7.2,12.4-16.9h0v-40.6h-6.8L251.7,183.6z"/>
	<path class="st0" d="M350.3,0C229,0,130.8,98.3,130.8,219.6c0,96.3,138.6,340.9,195.5,437.4c5,8.5,14.2,13.7,24,13.7
		c9.9,0,19-5.2,24-13.7c57-96.5,195.5-341,195.5-437.3C569.8,98.3,471.6,0,350.3,0z M350.3,389.4c-93.7,0-169.9-76.2-169.9-169.9
		c0-93.7,76.2-169.9,169.9-169.9c93.7,0,169.9,76.2,169.9,169.9C520.2,313.2,444,389.4,350.3,389.4z"/>
	<path class="st0" d="M349.8,135.5c-45.5,0-82.4,37-82.4,82.4c0,45.4,36.9,82.4,82.4,82.4c45.4,0,82.4-37,82.4-82.4
		C432.1,172.4,395.2,135.5,349.8,135.5z M349.8,293.1c-41.5,0-75.2-33.7-75.2-75.3c0-41.5,33.7-75.2,75.2-75.2
		c41.5,0,75.2,33.7,75.2,75.2C425,259.4,391.3,293.1,349.8,293.1z"/>
	<path class="st0" d="M465.3,141.6h-18.4v152.6h18.4v-80.7h15.9C490.4,173.4,465.3,141.6,465.3,141.6z"/>
</g>
</svg>
