<?xml version="1.0" encoding="utf-8"?>
<!-- Generator: Adobe Illustrator 23.1.1, SVG Export Plug-In . SVG Version: 6.00 Build 0)  -->
<svg version="1.1" id="Capa_1" xmlns="http://www.w3.org/2000/svg" xmlns:xlink="http://www.w3.org/1999/xlink" x="0px" y="0px"
	 viewBox="0 0 23.7 36.4" style="enable-background:new 0 0 23.7 36.4;" xml:space="preserve">
<style type="text/css">
	.st0{fill:#0060F9;}
</style>
<g>
	<path class="st0" d="M11.4,9.5C9.5,9.5,8,11.1,8,13s1.6,3.5,3.5,3.5s3.5-1.6,3.5-3.5C14.9,11.1,13.4,9.5,11.4,9.5z"/>
	<path class="st0" d="M6.6,11.3H6.1l0-2H5.8l0,2H5.4L5.2,9.4H4.9v2h0c0,0.6,0.3,0.7,0.6,0.8v4.6h0.9v-4.6C6.6,12.1,7,11.9,7,11.4
		l0,0v-2H6.7L6.6,11.3z"/>
	<path class="st0" d="M11.5,2.2c-6,0-10.9,4.9-10.9,10.9c0,4.8,6.9,16.9,9.7,21.7c0.2,0.4,0.7,0.7,1.2,0.7c0.5,0,0.9-0.3,1.2-0.7
		c2.8-4.8,9.7-16.9,9.7-21.7C22.4,7.1,17.5,2.2,11.5,2.2z M11.5,21.5c-4.6,0-8.4-3.8-8.4-8.4s3.8-8.4,8.4-8.4s8.4,3.8,8.4,8.4
		C19.9,17.7,16.1,21.5,11.5,21.5z"/>
	<path class="st0" d="M11.4,8.9c-2.3,0-4.1,1.8-4.1,4.1s1.8,4.1,4.1,4.1c2.3,0,4.1-1.8,4.1-4.1C15.5,10.8,13.7,8.9,11.4,8.9z
		 M11.4,16.7c-2.1,0-3.7-1.7-3.7-3.7c0-2.1,1.7-3.7,3.7-3.7s3.7,1.7,3.7,3.7C15.2,15.1,13.5,16.7,11.4,16.7z"/>
	<path class="st0" d="M17.2,9.2h-0.9v7.6h0.9v-4H18C18.4,10.8,17.2,9.2,17.2,9.2z"/>
</g>
</svg>
